<?xml version="1.0" encoding="UTF-8" standalone="no"?>
<svg
   xmlns:dc="http://purl.org/dc/elements/1.1/"
   xmlns:cc="http://creativecommons.org/ns#"
   xmlns:rdf="http://www.w3.org/1999/02/22-rdf-syntax-ns#"
   xmlns:svg="http://www.w3.org/2000/svg"
   xmlns="http://www.w3.org/2000/svg"
   xmlns:sodipodi="http://sodipodi.sourceforge.net/DTD/sodipodi-0.dtd"
   xmlns:inkscape="http://www.inkscape.org/namespaces/inkscape"
   id="Layer_1"
   data-name="Layer 1"
   viewBox="0 0 300 231.82"
   version="1.1"
   sodipodi:docname="icon.svg"
   inkscape:version="0.92.4 (5da689c313, 2019-01-14)">
  <metadata
     id="metadata8482">
    <rdf:RDF>
      <cc:Work
         rdf:about="">
        <dc:format>image/svg+xml</dc:format>
        <dc:type
           rdf:resource="http://purl.org/dc/dcmitype/StillImage" />
      </cc:Work>
    </rdf:RDF>
  </metadata>
  <sodipodi:namedview
     pagecolor="#ffffff"
     bordercolor="#666666"
     borderopacity="1"
     objecttolerance="10"
     gridtolerance="10"
     guidetolerance="10"
     inkscape:pageopacity="0"
     inkscape:pageshadow="2"
     inkscape:window-width="1920"
     inkscape:window-height="1017"
     id="namedview8480"
     showgrid="false"
     inkscape:zoom="2.586604"
     inkscape:cx="79.744525"
     inkscape:cy="98.940691"
     inkscape:window-x="-8"
     inkscape:window-y="-8"
     inkscape:window-maximized="1"
     inkscape:current-layer="Layer_1"
     showguides="false" />
  <defs
     id="defs8469">
    <style
       id="style8467">.cls-1{fill:#fff;}.cls-2{fill:#4267b2;}.cls-3{fill:#32363b;}</style>
  </defs>
  <title
     id="title8471">Thumb-Icon-RGB-BRC-Site-300</title>
  <g
     id="g4765"
     inkscape:export-xdpi="96"
     inkscape:export-ydpi="96">
    <path
       id="path8473"
       d="m 203.43,95.87 -3.71,-1.15 2.34,-3.11 A 8.08,8.08 0 0 0 196.94,78.79 L 193.22,78.17 195,74.79 A 8.08,8.08 0 0 0 188.33,63 H 141.6 a 17.35,17.35 0 0 0 -9.93,3.63 10.64,10.64 0 0 1 -2.59,1.7 l -1,0.46 v 43.18 l 4.87,4.17 16.44,30.48 a 13.5,13.5 0 0 1 1.93,8.07 l -1.32,17.1 a 7.49,7.49 0 0 0 3.73,1 c 7.1,0 13.18,-11.34 13.18,-20.63 a 26.16,26.16 0 0 0 -0.29,-3.85 l -2.87,-18.52 h 35.64 a 8.76,8.76 0 0 0 6.17,-2.61 7.77,7.77 0 0 0 2.35,-5.55 8,8 0 0 0 -3.22,-6.4 l -3.31,-2.51 3.62,-2.05 a 8.11,8.11 0 0 0 -1.57,-14.8 z"
       class="cls-1"
       inkscape:connector-curvature="0"
       style="fill:#ffffff" />
    <path
       inkscape:connector-curvature="0"
       style="fill:#980000;fill-opacity:1"
       id="path8475"
       d="m 88.53,57.32 a 0.17,0.17 0 0 0 -0.17,0.16 V 121 a 0.17,0.17 0 0 0 0.17,0.16 h 36.59 A 0.18,0.18 0 0 0 125.3,121 V 57.48 a 0.18,0.18 0 0 0 -0.18,-0.16 z"
       class="cls-2" />
    <path
       style="fill:#32363b"
       inkscape:connector-curvature="0"
       id="path8477"
       d="m 214.6,103.21996 a 13.62,13.62 0 0 1 -4.1,9.71 13.39,13.39 0 0 1 2.89,8.27 13.23,13.23 0 0 1 -3.94,9.45 14.29,14.29 0 0 1 -10.06,4.23 h -29.26 l 1.87,12.2 a 31.85,31.85 0 0 1 0.35,4.68 c 0,12.08 -8.15,26.11 -18.66,26.11 a 13,13 0 0 1 -8.34,-3 l -1.08,-0.9 1.53,-20.06 a 8.24,8.24 0 0 0 -0.21,-2.53 7.68,7.68 0 0 0 -1,-2.33 l -16.07,-29.78 -0.6,-0.52 a 5.63,5.63 0 0 1 -5.56,4.81 H 91.25 a 5.63,5.63 0 0 1 -5.63,-5.63 V 59.149957 a 5.63,5.63 0 0 1 5.63,-5.62 h 31.16 a 5.63,5.63 0 0 1 5.63,5.62 v 3 0 a 22.78,22.78 0 0 1 13.47,-4.94 v 0 h 46.81 0.15 a 13.61,13.61 0 0 1 12.53,16.67 13.57,13.57 0 0 1 7.14,17.75 13.51,13.51 0 0 1 6.46,11.590003 z m -92,-44.090003 a 0.17,0.17 0 0 0 -0.15,-0.15 h -31.2 a 0.17,0.17 0 0 0 -0.16,0.15 v 58.780003 a 0.16,0.16 0 0 0 0.16,0.15 h 31.16 a 0.16,0.16 0 0 0 0.15,-0.15 V 59.129957 Z m 80.87,36.35 -3.71,-1.15 2.34,-3.11 a 8.08,8.08 0 0 0 -5.16,-12.82 l -3.72,-0.62 1.78,-3.38 a 8.08,8.08 0 0 0 -6.67,-11.79 H 141.6 a 17.35,17.35 0 0 0 -9.93,3.63 10.64,10.64 0 0 1 -2.59,1.7 l -1,0.46 v 43.180003 l 4.87,4.17 16.44,30.48 a 13.5,13.5 0 0 1 1.93,8.07 l -1.32,17.1 a 7.49,7.49 0 0 0 3.73,1 c 7.1,0 13.18,-11.34 13.18,-20.63 a 26.16,26.16 0 0 0 -0.29,-3.85 l -2.87,-18.52 h 35.64 a 8.76,8.76 0 0 0 6.17,-2.61 7.77,7.77 0 0 0 2.35,-5.55 8,8 0 0 0 -3.22,-6.4 l -3.31,-2.51 3.62,-2.05 a 8.11,8.11 0 0 0 -1.57,-14.800003 z"
       class="cls-3" />
  </g>
</svg>
